<svg width="23" height="13" viewBox="0 0 23 13" fill="none" xmlns="http://www.w3.org/2000/svg">
<path d="M10.4296 12.4905C11.0154 13.0763 11.9651 13.0763 12.5509 12.4905L22.0968 2.94454C22.6826 2.35875 22.6826 1.409 22.0968 0.823215C21.511 0.237429 20.5613 0.237429 19.9755 0.823215L11.4902 9.3085L3.00495 0.823217C2.41917 0.237432 1.46942 0.237432 0.883632 0.823217C0.297845 1.409 0.297845 2.35875 0.883632 2.94454L10.4296 12.4905ZM11.4902 10.2148L9.99023 10.2148V10.2148L11.4902 10.2148ZM9.99023 9.40234L9.99023 10.2148L12.9902 10.2148L12.9902 9.40234L9.99023 9.40234ZM9.99023 10.2148L9.99023 11.4298L12.9902 11.4298L12.9902 10.2148L9.99023 10.2148Z" fill="white"/>
</svg>
